PathFileType	4	(X/Y/Z)	D:\TRACE\spotREDO_2-26-24\spot_justBody_Motion_3_3-v60.trc
DataRate	CameraRate	NumFrames	NumMarkers	Units	OrigDataRate	OrigDataStartFrame	OrigNumFrames
100.00	100.00	      20	9	mm	100.00	4376	      7000
Frame#	Time	front left toe			Front right toe			aft left toe			aft right toe			Arm			FL body			FR body			AL Body			AR Body			
		X1	Y1	Z1	X2	Y2	Z2	X3	Y3	Z3	X4	Y4	Z4	X5	Y5	Z5	X6	Y6	Z6	X7	Y7	Z7	X8	Y8	Z8	X9	Y9	Z9	

4376	43.750	-357.04041	22.69153	-102.23200	121.58822	56.93480	-179.43399	-334.83636	12.58493	394.81973	168.31973	19.79244	266.01416	-164.42744	796.12445	-319.36789	-245.82295	538.03912	-278.05829	-91.25619	540.74402	-302.42896	-117.23486	566.62585	595.97510	21.87403	570.42725	576.34906	
4377	43.760	-357.12189	22.83274	-102.06754	121.07990	46.61351	-177.92924	-334.90607	12.26863	394.92728	168.29634	19.67954	266.25598	-164.62196	796.20154	-318.56012	-245.64426	538.15594	-277.37808	-91.21652	540.91882	-301.77335	-116.90905	566.05554	596.71783	21.72280	569.85846	576.99445	
4378	43.770	-357.15567	22.97753	-101.86971	121.56966	36.67485	-177.47769	-334.93442	12.10936	395.01761	168.11957	19.52966	266.24847	-164.65369	796.52356	-317.76297	-245.62299	538.28790	-276.92435	-91.17929	541.09222	-301.14807	-117.12394	565.60602	597.26758	21.49986	569.47876	577.45270	
4379	43.780	-357.12512	23.08326	-101.72809	121.82332	28.58494	-178.52298	-335.03210	11.77400	395.37613	168.26570	19.39238	266.40884	-164.53522	796.55310	-316.96884	-245.67506	538.44116	-276.20462	-91.02656	541.37860	-300.55505	-117.18522	565.11621	597.90802	21.51274	569.21222	578.30414	
4380	43.790	-357.12775	22.94844	-101.66949	121.84485	28.16192	-177.58936	-335.16046	11.55216	395.52768	168.28317	19.13095	266.47525	-164.37894	796.72986	-316.27252	-245.68730	538.67590	-275.60648	-90.96671	541.77551	-299.91058	-117.16661	564.58643	598.75507	22.05461	568.64655	578.87817	
4381	43.800	-357.01682	23.64221	-101.22424	124.14838	29.11890	-177.10710	-335.68713	9.81391	395.84601	168.05093	19.13883	266.45016	-165.14905	797.84058	-314.74402	-245.79547	539.44238	-275.00522	-90.85202	543.31897	-299.17654	-117.53757	563.94824	599.21240	21.11167	568.05341	579.63892	
4382	43.810	-357.12347	23.94535	-100.80557	122.79488	29.97792	-177.11194	-335.42685	10.08403	396.05753	167.90408	19.21105	266.53949	-166.66669	799.14130	-313.58292	-245.52242	540.10669	-274.48410	-91.13416	544.10913	-298.66483	-117.15179	563.99237	599.92206	21.72093	568.17896	580.16290	
4383	43.820	-357.33960	23.97211	-100.67236	122.10358	30.57533	-176.83397	-335.04251	10.22977	395.81293	167.94400	19.30533	266.73749	-166.97758	800.39240	-312.82007	-245.77292	540.55762	-273.89307	-91.10070	544.50726	-298.22070	-116.94054	564.34125	600.42047	22.07893	568.68164	580.57947	
4384	43.830	-357.42435	24.03348	-100.49556	122.23086	30.57358	-176.54021	-335.10669	10.32732	395.98813	168.11540	19.21276	266.70801	-167.24843	800.63031	-312.34671	-245.97673	540.72046	-273.06757	-91.36407	544.98633	-297.73630	-116.60394	564.43079	600.92798	22.15283	569.16296	580.95605	
4385	43.840	-357.46848	24.16988	-100.36167	122.15994	30.62099	-176.52498	-335.06021	10.10989	395.99689	168.13754	19.10359	266.85019	-167.49641	800.46826	-311.77505	-246.13255	541.12311	-272.59460	-91.48238	545.55109	-297.34171	-116.13718	564.21979	601.35852	22.64704	569.26270	581.40851	
4386	43.850	-357.51144	24.19549	-100.28297	121.93507	30.67840	-176.50082	-335.05844	9.83034	395.97586	168.01918	18.78401	266.89163	-167.84024	800.34485	-311.50162	-246.15909	541.34265	-272.06879	-91.69792	545.83313	-296.81842	-115.86614	564.16467	601.72333	22.87782	569.21704	581.82690	
4387	43.860	-357.49789	24.16139	-100.21784	121.90770	30.62272	-176.51553	-334.99420	9.47815	395.90387	167.95265	18.57545	266.92944	-167.96719	800.52448	-311.10184	-246.06967	541.44568	-271.85480	-91.54695	545.92804	-296.42368	-115.40134	564.12317	602.22076	23.04547	569.15674	582.14636	
4388	43.870	-357.53113	24.26114	-100.11971	121.82034	30.82363	-176.41454	-335.01611	9.25422	395.98074	167.88620	18.25292	266.93851	-167.70435	800.71979	-310.67578	-245.92020	541.57281	-271.59912	-91.35253	545.95593	-296.21930	-115.05213	563.95752	602.49280	23.39947	568.89856	582.46722	
4389	43.880	-357.55716	24.34570	-100.07600	122.06147	30.74478	-176.34344	-335.03241	9.20258	396.08203	168.04518	18.12388	266.96259	-167.22856	800.93011	-310.36465	-245.59962	541.55267	-271.25824	-91.05389	545.95709	-296.02542	-114.81716	563.75549	602.65826	23.48079	568.74036	582.52185	
4390	43.890	-357.57709	24.42650	-100.02782	122.20255	30.78453	-176.24243	-334.97931	9.07402	396.10394	168.09415	17.97478	267.01379	-166.94153	801.00159	-310.12106	-245.16394	541.46606	-271.17380	-90.68471	545.95526	-295.91360	-114.63546	563.57465	602.80011	23.75055	568.63129	582.59436	
4391	43.900	-357.52304	24.46021	-99.96287	122.39063	30.72133	-176.11688	-334.94760	8.89926	396.14816	168.10512	17.81316	267.13245	-166.54466	800.90869	-310.00412	-244.82059	541.41180	-271.12952	-90.37853	545.92706	-295.83289	-114.38075	563.38696	602.97723	24.38463	568.42249	582.75629	
4392	43.910	-357.33505	24.46138	-99.95176	122.48764	30.68261	-176.02237	-334.89429	8.87793	396.20786	168.36604	17.74841	267.20288	-165.88405	800.93842	-309.91223	-244.42274	541.59735	-271.01178	-89.84758	545.95856	-295.76703	-114.18227	563.24908	603.04822	24.74675	568.17218	582.86798	
4393	43.920	-357.01498	24.51418	-99.99174	122.74551	30.82467	-175.77719	-334.74155	8.61052	396.30679	168.58514	17.69448	267.32883	-165.40007	800.98596	-309.96463	-243.82086	541.76953	-271.01410	-89.31238	546.09473	-295.60297	-114.08392	563.28973	603.08850	25.08394	567.92871	583.09241	
4394	43.930	-356.75650	24.60616	-99.98048	122.60617	30.57931	-175.45601	-334.64523	8.53939	396.32455	168.88583	17.66054	267.49094	-164.41080	801.13940	-309.77896	-243.28290	541.94391	-271.22760	-88.57018	546.20929	-295.44455	-113.84749	563.03131	603.08459	25.29216	567.90924	583.34503	
4395	43.940	-356.56284	24.70708	-99.93793	123.16631	31.00452	-175.62874	-334.42844	8.42129	396.32193	169.09097	17.67705	267.63193	-163.82481	801.12848	-309.75528	-242.58557	541.84375	-271.04501	-87.84882	546.22809	-295.30222	-113.78619	563.09430	603.09326	25.59295	567.63580	583.37909	
